<?xml version="1.0" encoding="utf-8"?>
<!-- Generator: Adobe Illustrator 24.3.0, SVG Export Plug-In . SVG Version: 6.00 Build 0)  -->
<svg version="1.1" id="Layer_1" xmlns="http://www.w3.org/2000/svg" xmlns:xlink="http://www.w3.org/1999/xlink" x="0px" y="0px"
	 viewBox="0 0 512 175" style="enable-background:new 0 0 512 175;" xml:space="preserve">
<style type="text/css">
	.st0{fill:#FFFFFF;}
	.st1{fill:#98989A;}
	.st2{font-family:'Arial-BoldMT';}
	.st3{font-size:34.8132px;}
	.st4{letter-spacing:8.4;}
	.st5{fill:#211D1E;}
</style>
<g>
	<g>
		<path class="st0" d="M296.1,43.2c-1.3-1.1-2.9-1.5-5-1.5c-3.5,0-6.2,1.2-7.4,4.2l-17.3,42.2l-16.8-39.2c-1.6-3.8-4.5-5.8-7.9-5.8
			c-3.6-0.1-6.5,2-8,5.9l-16.8,39.2l-17.3-42.2c-1.3-3-4-4.3-7.5-4.2c-2,0-3.7,0.4-4.9,1.5c-1.3,1.1-2,3-2,5c0,1.1,0.3,2.2,0.9,4.1
			l0,0.1l21.8,54.6c1.5,3.8,4.5,5.8,8.4,5.8h0.2c3.8,0,6.9-1.8,8.4-5.6l16.8-39.4l16.6,39.2c1.5,3.7,4.5,5.6,8.2,5.5
			c3.8,0.1,6.9-1.9,8.4-5.7l22.2-54.4c0.6-1.5,1-2.9,1-4.3C298.1,46.1,297.4,44.2,296.1,43.2"/>
		<path class="st0" d="M365.8,47.7c-4.8-3.9-11.6-5.7-20.6-5.8h-20c-7.3,0-13.4,1.6-18.5,4.8c-6.8,4.1-10.6,10.6-10.5,18.9v25.3
			c0,8.3,3.7,14.8,10.6,18.6c5.5,2.9,11.7,4.4,18.4,4.4h20c7.4,0,13.3-1.4,18-4.3c6.4-3.7,10-10.2,9.9-18.6V65.5
			C373.1,57.8,370.6,51.6,365.8,47.7 M310.7,65.6c0-2.4,1.3-4.4,5.3-6.1c2.7-1.1,5.8-1.6,9.4-1.6h19.5c4.8,0,8.4,0.7,10.6,1.9
			c2.2,1.3,2.9,2.6,2.9,4.7v26.5h0c0,2-1.2,3.9-4.9,5.4c-2.7,1.1-5.5,1.7-8.5,1.7h-19.5c-3.6,0-6.7-0.5-9.4-1.4
			c-4-1.5-5.4-3.4-5.4-5.7L310.7,65.6z"/>
		<path class="st0" d="M490,100.8l-25-23l18.5-23c1.8-1.6,3-3.9,3-6.5c0-2-0.6-3.8-1.8-5c-1.2-1.1-2.8-1.6-4.6-1.6
			c-3.6,0.1-5.6,0.2-7.1,1.5l-19.3,24.1c0,0-23.6-22.8-23.8-23c-1.9-2.1-3.1-2.4-4.9-2.4c-0.3,0-0.7,0-1,0c-1.7,0-3,0-3.9,0.1
			c-10.7,0.3-28.3,1.2-32.3,3c-7.7,3.3-11.9,10.2-11.8,19.8v41.7c0,2.1,0.4,4,1.4,5.4c1,1.4,2.5,1.9,4.1,1.9h0
			c2.9,0,4.5-0.1,5.6-0.5c2.2-0.9,3.4-3.6,3.4-6.7V64.8c0-2.3,0.8-3.8,2.8-5.1c2-1.3,22.1-2,26.6-2c0.1,0,0.2,0,0.3,0L442.2,78
			l-55.1,62.2c-1.9,1.7-3.1,3.9-3.1,6.5c0,2,0.6,3.9,1.8,5c1.2,1.2,2.8,1.6,4.6,1.6c3.5-0.1,5.6-0.2,7.1-1.5l56.1-63.3l26.1,24
			c1,0.9,2.1,1.5,3.3,1.5h0c1.7,0,3.1,0,4-0.1c0.5,0,0.9-0.1,1.2-0.1c0.3-0.1,0.4,0,0.7-0.2c2.5-0.6,4.2-3.1,4.1-6.3
			C493,104.7,491.8,102.5,490,100.8"/>
		<path class="st0" d="M87.9,44.5c-5.3-1.7-12.7-2.6-22.3-2.6c-1.7,0-3.2,0.6-4.2,1.9c-1,1.3-1.5,3.2-1.5,5.4c0,2.6,0.4,4.7,1.4,6.3
			c1,1.6,2.6,2.4,4.3,2.4h2.8c0.2,0,0.4,0,0.5,0c0.1-0.1,0.2,0,0.3-0.1c0.7,0,1.3-0.1,1.8-0.1c0.6,0,1.1,0,1.5,0
			c5,0,8.8,0.6,11.3,1.7c1.5,0.7,2.5,1.5,3,2.3H46.4c-6.7,0-12.3,1.4-16.9,4.3c-6.2,3.7-9.5,9.8-9.5,17.6v8.7c0,7.3,3.6,13.2,10,17
			c4.8,3,10.4,4.5,16.9,4.5h29.3c8.3,0,14.7-1.7,19.1-5.4c4.4-3.7,6.7-9.5,6.7-16.8v-27C102,54.7,97,47.6,87.9,44.5 M86.8,89.6
			L86.8,89.6c-0.5,6.3-4.4,11.3-9.1,11.3H43.5c-5,0-9.1-5.6-9.1-12.5c0-6.9,4.1-12.5,9.1-12.5h43.3V89.6z"/>
		<path class="st0" d="M180.7,24.1L180.7,24.1l-0.1-0.1c-1.4-0.4-3.2-0.6-5.4-0.6c-1.7,0-3.2,0.5-4.2,1.9c-1,1.3-1.5,3.2-1.5,5.4
			v11.8h-34.6c-9.2,0-16.4,1.8-21.4,5.6c-5.1,3.8-7.9,9.8-8.2,17.3c-0.2,4.8-0.3,10.9-0.3,18.5c0,3.8,0.1,6.8,0.2,9.1
			c0.3,7,3.2,12.5,8.3,15.9c5.1,3.4,12.3,5,21.7,5h18.3c7.3,0,13.7-1.5,19-4.5c7.5-3.9,11.6-10.1,11.6-18.2V30.7
			C184.1,27.7,182.9,25,180.7,24.1 M169.2,81.9L169.2,81.9v7c0,5.9-3.7,10.6-8.3,10.6h-33c-4.6,0-8.3-4.8-8.3-10.6V68.4
			c0-5.8,3.6-10.5,8.1-10.6v0h41.5V81.9z"/>
	</g>
	<text transform="matrix(1.0752 0 0 1 40.8569 152.9531)"><tspan x="0" y="0" class="st1 st2 st3 st4">printing</tspan><tspan x="201.4" y="0" class="st5 st2 st3 st4">.com</tspan></text>
</g>
</svg>
